<svg id="kity_svg_6" xmlns="http://www.w3.org/2000/svg" xmlns:xlink="http://www.w3.org/1999/xlink" version="1.1" width="690" height="2515" style="background: rgb(251, 251, 251); visibility: visible;" viewBox="0 0 690 2515"><defs id="kity_defs_7"><linearGradient id="kity_linearGradient_17" x1="0" y1="0" x2="0" y2="1"><stop id="kity_stop_18" offset="0" stop-color="rgb(255, 255, 255)"></stop><stop id="kity_stop_19" offset="1" stop-color="rgb(204, 204, 204)"></stop></linearGradient><marker id="kity_marker_2" orient="auto" refX="6" refY="0" viewBox="-7 -7 14 14" markerWidth="7" markerHeight="7" markerUnits="userSpaceOnUse"><path id="kity_path_3" fill="rgb(115, 161, 191)" stroke="none" d="M6,0A6,6,0,1,1,-6,0A6,6,0,1,1,6,0"></path></marker></defs><g id="kity_g_8"><g id="minder1" text-rendering="geometricPrecision"><g id="minder_connect_group1"><path id="kity_path_31" fill="none" stroke="rgb(115, 161, 191)" stroke-width="1" d="M51.50002308934927,1817.500025190413A167,344,0,0,1,218.50002308934927,1473.500025190413"></path><path id="kity_path_79" fill="none" stroke="rgb(115, 161, 191)" stroke-width="1" d="M51.50002308934927,1817.500025190413A217,270,0,0,0,268.50002308934927,2087.500025190413"></path><path id="kity_path_95" fill="none" stroke="rgb(115, 161, 191)" stroke-width="1" d="M51.50002308934927,1817.500025190413A206,1344,0,0,1,257.50002308934927,473.500025190413"></path><path id="kity_path_103" fill="none" stroke="rgb(115, 161, 191)" stroke-width="1" d="M51.50002308934927,1817.500025190413A217,537,0,0,0,268.50002308934927,2354.500025190413"></path><path id="kity_path_988" fill="none" stroke="rgb(115, 161, 191)" stroke-width="1" d="M475.50002308934927,2250.500025190413C495.50002308934927,2250.500025190413,495.50002308934927,2224.500025190413,515.5000230893493,2224.500025190413"></path><path id="kity_path_989" fill="none" stroke="rgb(115, 161, 191)" stroke-width="1" d="M475.50002308934927,2250.500025190413C495.50002308934927,2250.500025190413,495.50002308934927,2276.500025190413,515.5000230893493,2276.500025190413"></path><path id="kity_path_990" fill="none" stroke="rgb(115, 161, 191)" stroke-width="1" d="M366.50002308934927,2354.500025190413C386.50002308934927,2354.500025190413,386.50002308934927,2250.500025190413,406.50002308934927,2250.500025190413"></path><path id="kity_path_991" fill="none" stroke="rgb(115, 161, 191)" stroke-width="1" d="M475.50002308934927,2354.500025190413C495.50002308934927,2354.500025190413,495.50002308934927,2328.500025190413,515.5000230893493,2328.500025190413"></path><path id="kity_path_992" fill="none" stroke="rgb(115, 161, 191)" stroke-width="1" d="M475.50002308934927,2354.500025190413C495.50002308934927,2354.500025190413,495.50002308934927,2380.500025190413,515.5000230893493,2380.500025190413"></path><path id="kity_path_993" fill="none" stroke="rgb(115, 161, 191)" stroke-width="1" d="M366.50002308934927,2354.500025190413C386.50002308934927,2354.500025190413,386.50002308934927,2354.500025190413,406.50002308934927,2354.500025190413"></path><path id="kity_path_994" fill="none" stroke="rgb(115, 161, 191)" stroke-width="1" d="M451.50002308934927,2458.500025190413C471.50002308934927,2458.500025190413,471.50002308934927,2432.500025190413,491.50002308934927,2432.500025190413"></path><path id="kity_path_995" fill="none" stroke="rgb(115, 161, 191)" stroke-width="1" d="M451.50002308934927,2458.500025190413C471.50002308934927,2458.500025190413,471.50002308934927,2484.500025190413,491.50002308934927,2484.500025190413"></path><path id="kity_path_996" fill="none" stroke="rgb(115, 161, 191)" stroke-width="1" d="M366.50002308934927,2354.500025190413C386.50002308934927,2354.500025190413,386.50002308934927,2458.500025190413,406.50002308934927,2458.500025190413"></path><path id="kity_path_997" fill="none" stroke="rgb(115, 161, 191)" stroke-width="1" d="M366.50002308934927,2087.500025190413C386.50002308934927,2087.500025190413,386.50002308934927,2009.500025190413,406.50002308934927,2009.500025190413"></path><path id="kity_path_998" fill="none" stroke="rgb(115, 161, 191)" stroke-width="1" d="M366.50002308934927,2087.500025190413C386.50002308934927,2087.500025190413,386.50002308934927,2061.500025190413,406.50002308934927,2061.500025190413"></path><path id="kity_path_999" fill="none" stroke="rgb(115, 161, 191)" stroke-width="1" d="M366.50002308934927,2087.500025190413C386.50002308934927,2087.500025190413,386.50002308934927,2113.500025190413,406.50002308934927,2113.500025190413"></path><path id="kity_path_1000" fill="none" stroke="rgb(115, 161, 191)" stroke-width="1" d="M366.50002308934927,2087.500025190413C386.50002308934927,2087.500025190413,386.50002308934927,2165.500025190413,406.50002308934927,2165.500025190413"></path><path id="kity_path_1024" fill="none" stroke="rgb(115, 161, 191)" stroke-width="1" d="M423.50002308934927,1109.500025190413C443.50002308934927,1109.500025190413,443.50002308934927,1005.500025190413,463.50002308934927,1005.500025190413"></path><path id="kity_path_1025" fill="none" stroke="rgb(115, 161, 191)" stroke-width="1" d="M423.50002308934927,1109.500025190413C443.50002308934927,1109.500025190413,443.50002308934927,1057.500025190413,463.50002308934927,1057.500025190413"></path><path id="kity_path_1026" fill="none" stroke="rgb(115, 161, 191)" stroke-width="1" d="M423.50002308934927,1109.500025190413C443.50002308934927,1109.500025190413,443.50002308934927,1109.500025190413,463.50002308934927,1109.500025190413"></path><path id="kity_path_1027" fill="none" stroke="rgb(115, 161, 191)" stroke-width="1" d="M423.50002308934927,1109.500025190413C443.50002308934927,1109.500025190413,443.50002308934927,1161.500025190413,463.50002308934927,1161.500025190413"></path><path id="kity_path_1028" fill="none" stroke="rgb(115, 161, 191)" stroke-width="1" d="M423.50002308934927,1109.500025190413C443.50002308934927,1109.500025190413,443.50002308934927,1213.500025190413,463.50002308934927,1213.500025190413"></path><path id="kity_path_1029" fill="none" stroke="rgb(115, 161, 191)" stroke-width="1" d="M332.50002308934927,1473.500025190413C352.50002308934927,1473.500025190413,352.50002308934927,1109.500025190413,372.50002308934927,1109.500025190413"></path><path id="kity_path_1030" fill="none" stroke="rgb(115, 161, 191)" stroke-width="1" d="M421.50002308934927,1343.500025190413C441.50002308934927,1343.500025190413,441.50002308934927,1265.500025190413,461.50002308934927,1265.500025190413"></path><path id="kity_path_1031" fill="none" stroke="rgb(115, 161, 191)" stroke-width="1" d="M421.50002308934927,1343.500025190413C441.50002308934927,1343.500025190413,441.50002308934927,1317.500025190413,461.50002308934927,1317.500025190413"></path><path id="kity_path_1032" fill="none" stroke="rgb(115, 161, 191)" stroke-width="1" d="M421.50002308934927,1343.500025190413C441.50002308934927,1343.500025190413,441.50002308934927,1369.500025190413,461.50002308934927,1369.500025190413"></path><path id="kity_path_1033" fill="none" stroke="rgb(115, 161, 191)" stroke-width="1" d="M421.50002308934927,1343.500025190413C441.50002308934927,1343.500025190413,441.50002308934927,1421.500025190413,461.50002308934927,1421.500025190413"></path><path id="kity_path_1034" fill="none" stroke="rgb(115, 161, 191)" stroke-width="1" d="M332.50002308934927,1473.500025190413C352.50002308934927,1473.500025190413,352.50002308934927,1343.500025190413,372.50002308934927,1343.500025190413"></path><path id="kity_path_1035" fill="none" stroke="rgb(115, 161, 191)" stroke-width="1" d="M417.50002308934927,1525.500025190413C437.50002308934927,1525.500025190413,437.50002308934927,1473.500025190413,457.50002308934927,1473.500025190413"></path><path id="kity_path_1036" fill="none" stroke="rgb(115, 161, 191)" stroke-width="1" d="M417.50002308934927,1525.500025190413C437.50002308934927,1525.500025190413,437.50002308934927,1525.500025190413,457.50002308934927,1525.500025190413"></path><path id="kity_path_1037" fill="none" stroke="rgb(115, 161, 191)" stroke-width="1" d="M417.50002308934927,1525.500025190413C437.50002308934927,1525.500025190413,437.50002308934927,1577.500025190413,457.50002308934927,1577.500025190413"></path><path id="kity_path_1038" fill="none" stroke="rgb(115, 161, 191)" stroke-width="1" d="M332.50002308934927,1473.500025190413C352.50002308934927,1473.500025190413,352.50002308934927,1525.500025190413,372.50002308934927,1525.500025190413"></path><path id="kity_path_1039" fill="none" stroke="rgb(115, 161, 191)" stroke-width="1" d="M418.50002308934927,1681.500025190413C438.50002308934927,1681.500025190413,438.50002308934927,1629.500025190413,458.50002308934927,1629.500025190413"></path><path id="kity_path_1040" fill="none" stroke="rgb(115, 161, 191)" stroke-width="1" d="M418.50002308934927,1681.500025190413C438.50002308934927,1681.500025190413,438.50002308934927,1681.500025190413,458.50002308934927,1681.500025190413"></path><path id="kity_path_1041" fill="none" stroke="rgb(115, 161, 191)" stroke-width="1" d="M418.50002308934927,1681.500025190413C438.50002308934927,1681.500025190413,438.50002308934927,1733.500025190413,458.50002308934927,1733.500025190413"></path><path id="kity_path_1042" fill="none" stroke="rgb(115, 161, 191)" stroke-width="1" d="M332.50002308934927,1473.500025190413C352.50002308934927,1473.500025190413,352.50002308934927,1681.500025190413,372.50002308934927,1681.500025190413"></path><path id="kity_path_1043" fill="none" stroke="rgb(115, 161, 191)" stroke-width="1" d="M417.50002308934927,1837.500025190413C437.50002308934927,1837.500025190413,437.50002308934927,1785.500025190413,457.50002308934927,1785.500025190413"></path><path id="kity_path_1044" fill="none" stroke="rgb(115, 161, 191)" stroke-width="1" d="M417.50002308934927,1837.500025190413C437.50002308934927,1837.500025190413,437.50002308934927,1837.500025190413,457.50002308934927,1837.500025190413"></path><path id="kity_path_1045" fill="none" stroke="rgb(115, 161, 191)" stroke-width="1" d="M417.50002308934927,1837.500025190413C437.50002308934927,1837.500025190413,437.50002308934927,1889.500025190413,457.50002308934927,1889.500025190413"></path><path id="kity_path_1046" fill="none" stroke="rgb(115, 161, 191)" stroke-width="1" d="M332.50002308934927,1473.500025190413C352.50002308934927,1473.500025190413,352.50002308934927,1837.500025190413,372.50002308934927,1837.500025190413"></path><path id="kity_path_1069" fill="none" stroke="rgb(115, 161, 191)" stroke-width="1" d="M513.5000230893493,83.500025190413C533.5000230893493,83.500025190413,533.5000230893493,31.500025190412998,553.5000230893493,31.500025190412998"></path><path id="kity_path_1070" fill="none" stroke="rgb(115, 161, 191)" stroke-width="1" d="M513.5000230893493,83.500025190413C533.5000230893493,83.500025190413,533.5000230893493,83.500025190413,553.5000230893493,83.500025190413"></path><path id="kity_path_1071" fill="none" stroke="rgb(115, 161, 191)" stroke-width="1" d="M513.5000230893493,83.500025190413C533.5000230893493,83.500025190413,533.5000230893493,135.500025190413,553.5000230893493,135.500025190413"></path><path id="kity_path_1072" fill="none" stroke="rgb(115, 161, 191)" stroke-width="1" d="M368.50002308934927,473.500025190413C388.50002308934927,473.500025190413,388.50002308934927,83.500025190413,408.50002308934927,83.500025190413"></path><path id="kity_path_1073" fill="none" stroke="rgb(115, 161, 191)" stroke-width="1" d="M501.50002308934927,291.500025190413C521.5000230893493,291.500025190413,521.5000230893493,187.500025190413,541.5000230893493,187.500025190413"></path><path id="kity_path_1074" fill="none" stroke="rgb(115, 161, 191)" stroke-width="1" d="M501.50002308934927,291.500025190413C521.5000230893493,291.500025190413,521.5000230893493,239.500025190413,541.5000230893493,239.500025190413"></path><path id="kity_path_1075" fill="none" stroke="rgb(115, 161, 191)" stroke-width="1" d="M501.50002308934927,291.500025190413C521.5000230893493,291.500025190413,521.5000230893493,291.500025190413,541.5000230893493,291.500025190413"></path><path id="kity_path_1076" fill="none" stroke="rgb(115, 161, 191)" stroke-width="1" d="M501.50002308934927,291.500025190413C521.5000230893493,291.500025190413,521.5000230893493,343.500025190413,541.5000230893493,343.500025190413"></path><path id="kity_path_1077" fill="none" stroke="rgb(115, 161, 191)" stroke-width="1" d="M501.50002308934927,291.500025190413C521.5000230893493,291.500025190413,521.5000230893493,395.500025190413,541.5000230893493,395.500025190413"></path><path id="kity_path_1078" fill="none" stroke="rgb(115, 161, 191)" stroke-width="1" d="M368.50002308934927,473.500025190413C388.50002308934927,473.500025190413,388.50002308934927,291.500025190413,408.50002308934927,291.500025190413"></path><path id="kity_path_1079" fill="none" stroke="rgb(115, 161, 191)" stroke-width="1" d="M501.50002308934927,525.500025190413C521.5000230893493,525.500025190413,521.5000230893493,447.500025190413,541.5000230893493,447.500025190413"></path><path id="kity_path_1080" fill="none" stroke="rgb(115, 161, 191)" stroke-width="1" d="M501.50002308934927,525.500025190413C521.5000230893493,525.500025190413,521.5000230893493,499.500025190413,541.5000230893493,499.500025190413"></path><path id="kity_path_1081" fill="none" stroke="rgb(115, 161, 191)" stroke-width="1" d="M501.50002308934927,525.500025190413C521.5000230893493,525.500025190413,521.5000230893493,551.500025190413,541.5000230893493,551.500025190413"></path><path id="kity_path_1082" fill="none" stroke="rgb(115, 161, 191)" stroke-width="1" d="M501.50002308934927,525.500025190413C521.5000230893493,525.500025190413,521.5000230893493,603.500025190413,541.5000230893493,603.500025190413"></path><path id="kity_path_1083" fill="none" stroke="rgb(115, 161, 191)" stroke-width="1" d="M368.50002308934927,473.500025190413C388.50002308934927,473.500025190413,388.50002308934927,525.500025190413,408.50002308934927,525.500025190413"></path><path id="kity_path_1084" fill="none" stroke="rgb(115, 161, 191)" stroke-width="1" d="M452.50002308934927,733.500025190413C472.50002308934927,733.500025190413,472.50002308934927,655.500025190413,492.50002308934927,655.500025190413"></path><path id="kity_path_1085" fill="none" stroke="rgb(115, 161, 191)" stroke-width="1" d="M452.50002308934927,733.500025190413C472.50002308934927,733.500025190413,472.50002308934927,707.500025190413,492.50002308934927,707.500025190413"></path><path id="kity_path_1086" fill="none" stroke="rgb(115, 161, 191)" stroke-width="1" d="M452.50002308934927,733.500025190413C472.50002308934927,733.500025190413,472.50002308934927,759.500025190413,492.50002308934927,759.500025190413"></path><path id="kity_path_1087" fill="none" stroke="rgb(115, 161, 191)" stroke-width="1" d="M452.50002308934927,733.500025190413C472.50002308934927,733.500025190413,472.50002308934927,811.500025190413,492.50002308934927,811.500025190413"></path><path id="kity_path_1088" fill="none" stroke="rgb(115, 161, 191)" stroke-width="1" d="M368.50002308934927,473.500025190413C388.50002308934927,473.500025190413,388.50002308934927,733.500025190413,408.50002308934927,733.500025190413"></path><path id="kity_path_1089" fill="none" stroke="rgb(115, 161, 191)" stroke-width="1" d="M465.50002308934927,863.500025190413C485.50002308934927,863.500025190413,485.50002308934927,863.500025190413,505.50002308934927,863.500025190413"></path><path id="kity_path_1090" fill="none" stroke="rgb(115, 161, 191)" stroke-width="1" d="M368.50002308934927,473.500025190413C388.50002308934927,473.500025190413,388.50002308934927,863.500025190413,408.50002308934927,863.500025190413"></path></g><g id="minder_node1"><path id="node_outline1" fill="rgb(115, 161, 191)" stroke="rgb(115, 161, 191)" d="M25.50002308934927,1797.500025190413h52a5,5,0,0,1,5,5v30a5,5,0,0,1,-5,5h-52a5,5,0,0,1,-5,-5v-30a5,5,0,0,1,5,-5z" stroke-width="3"></path><g id="node_text1" fill="white"><text id="kity_text_22" text-rendering="inherit" font-size="16" dy=".8em" y="1807.1000249196377" x="44.50002308934927">js</text></g></g><g id="kity_g_14" display="none"><path id="kity_path_15" fill="rgba(0, 92, 153, 0.5)" stroke="none" d="M299.50002308934927,1573.500025190413h96v20h-96z"></path><path id="kity_path_16" fill="none" stroke="rgb(0, 76, 128)" d="M299.50002308934927,1593.500025190413L395.50002308934927,1593.500025190413" stroke-width="1"></path></g><g id="minder_node2" opacity="1"><g id="node_expander1" style="cursor: pointer;"><path id="kity_path_36" fill="white" stroke="gray" d="M219.500030644238,1473.5000098124146A6,6,0,1,1,207.500030644238,1473.5000098124146A6,6,0,1,1,219.500030644238,1473.5000098124146"></path><path id="kity_path_37" fill="none" stroke="gray" d="M209.000030644238,1473.5000098124146L218.000030644238,1473.5000098124146"></path></g><path id="node_outline2" fill="rgb(238, 243, 246)" stroke="rgb(115, 161, 191)" d="M223.50003185123205,1460.5000098124146h106a3,3,0,0,1,3,3v20a3,3,0,0,1,-3,3h-106a3,3,0,0,1,-3,-3v-20a3,3,0,0,1,3,-3z" stroke-width="1"></path><g id="node_text2" fill="black"><text id="kity_text_33" text-rendering="inherit" font-size="14" dy=".8em" y="1464.4000098820243" x="240.50003185123205">js-web-api</text></g></g><g id="minder_node8" opacity="1"><g id="node_expander7" style="cursor: pointer;"><path id="kity_path_84" fill="white" stroke="gray" d="M269.5000328794122,2087.5000372603536A6,6,0,1,1,257.5000328794122,2087.5000372603536A6,6,0,1,1,269.5000328794122,2087.5000372603536"></path><path id="kity_path_85" fill="none" stroke="gray" d="M259.0000328794122,2087.5000372603536L268.0000328794122,2087.5000372603536"></path></g><path id="node_outline8" fill="rgb(238, 243, 246)" stroke="rgb(115, 161, 191)" d="M273.50003408640623,2074.5000372603536h90a3,3,0,0,1,3,3v20a3,3,0,0,1,-3,3h-90a3,3,0,0,1,-3,-3v-20a3,3,0,0,1,3,-3z" stroke-width="1"></path><g id="node_text8" fill="black"><text id="kity_text_81" text-rendering="inherit" font-size="14" dy=".8em" y="2078.400037329963" x="290.50003408640623">开发环境</text></g></g><g id="minder_node10" opacity="1"><g id="node_expander9" style="cursor: pointer;"><path id="kity_path_100" fill="white" stroke="gray" d="M258.50003238767385,473.49996510893106A6,6,0,1,1,246.50003238767385,473.49996510893106A6,6,0,1,1,258.50003238767385,473.49996510893106"></path><path id="kity_path_101" fill="none" stroke="gray" d="M248.00003238767385,473.49996510893106L257.00003238767385,473.49996510893106"></path></g><path id="node_outline10" fill="rgb(238, 243, 246)" stroke="rgb(57, 80, 96)" d="M262.5000335946679,460.49996510893106h103a3,3,0,0,1,3,3v20a3,3,0,0,1,-3,3h-103a3,3,0,0,1,-3,-3v-20a3,3,0,0,1,3,-3z" stroke-width="3"></path><g id="node_text10" fill="black"><text id="kity_text_97" text-rendering="inherit" font-size="14" dy=".8em" y="464.3999651785408" x="279.5000335946679">js基础知识</text></g></g><g id="minder_node11" opacity="1"><g id="node_expander10" style="cursor: pointer;"><path id="kity_path_108" fill="white" stroke="gray" d="M269.5000328794122,2354.5000491961837A6,6,0,1,1,257.5000328794122,2354.5000491961837A6,6,0,1,1,269.5000328794122,2354.5000491961837"></path><path id="kity_path_109" fill="none" stroke="gray" d="M259.0000328794122,2354.5000491961837L268.0000328794122,2354.5000491961837"></path></g><path id="node_outline11" fill="rgb(238, 243, 246)" stroke="rgb(115, 161, 191)" d="M273.50003408640623,2341.5000491961837h90a3,3,0,0,1,3,3v20a3,3,0,0,1,-3,3h-90a3,3,0,0,1,-3,-3v-20a3,3,0,0,1,3,-3z" stroke-width="1"></path><g id="node_text11" fill="black"><text id="kity_text_105" text-rendering="inherit" font-size="14" dy=".8em" y="2345.4000492657933" x="290.50003408640623">运行环境</text></g></g><g id="kity_g_12" display="none"><path id="kity_path_13" fill="none" stroke="rgb(66, 94, 112)" d="M302.50002308934927,1598.500025190413h90a3,3,0,0,1,3,3v20a3,3,0,0,1,-3,3h-90a3,3,0,0,1,-3,-3v-20a3,3,0,0,1,3,-3z" stroke-width="5"></path></g><g id="minder_node66"><g id="node_expander65" style="cursor: pointer;" display="none"><path id="kity_path_601" fill="white" stroke="gray" d="M515.5000438764691,2224.500043384731A6,6,0,1,1,503.50004387646914,2224.500043384731A6,6,0,1,1,515.5000438764691,2224.500043384731"></path><path id="kity_path_602" fill="none" stroke="gray"></path></g><path id="node_outline66" fill="none" stroke="none" d="M520.5000445917249,2213.500043384731h35a5,5,0,0,1,5,5v12a5,5,0,0,1,-5,5h-35a5,5,0,0,1,-5,-5v-12a5,5,0,0,1,5,-5z" stroke-width="3"></path><g id="node_text66" fill="black"><text id="kity_text_598" text-rendering="inherit" font-size="12" dy=".8em" y="2216.700043386008" x="525.5000445917249">加载</text></g></g><g id="minder_node67"><g id="node_expander66" style="cursor: pointer;" display="none"><path id="kity_path_609" fill="white" stroke="gray" d="M515.5000438764691,2276.500045709312A6,6,0,1,1,503.50004387646914,2276.500045709312A6,6,0,1,1,515.5000438764691,2276.500045709312"></path><path id="kity_path_610" fill="none" stroke="gray"></path></g><path id="node_outline67" fill="none" stroke="none" d="M520.5000445917249,2265.500045709312h35a5,5,0,0,1,5,5v12a5,5,0,0,1,-5,5h-35a5,5,0,0,1,-5,-5v-12a5,5,0,0,1,5,-5z" stroke-width="3"></path><g id="node_text67" fill="black"><text id="kity_text_606" text-rendering="inherit" font-size="12" dy=".8em" y="2268.700045710589" x="525.5000445917249">渲染</text></g></g><g id="minder_node63"><g id="node_expander62" style="cursor: pointer;"><path id="kity_path_577" fill="white" stroke="gray" d="M406.5000390037894,2250.5000445470214A6,6,0,1,1,394.5000390037894,2250.5000445470214A6,6,0,1,1,406.5000390037894,2250.5000445470214"></path><path id="kity_path_578" fill="none" stroke="gray" d="M396.0000390037894,2250.5000445470214L405.0000390037894,2250.5000445470214"></path></g><path id="node_outline63" fill="none" stroke="none" d="M411.50003971904516,2239.5000445470214h59a5,5,0,0,1,5,5v12a5,5,0,0,1,-5,5h-59a5,5,0,0,1,-5,-5v-12a5,5,0,0,1,5,-5z" stroke-width="3"></path><g id="node_text63" fill="black"><text id="kity_text_574" text-rendering="inherit" font-size="12" dy=".8em" y="2242.7000445482986" x="416.50003971904516">页面加载</text></g></g><g id="minder_node68"><g id="node_expander67" style="cursor: pointer;" display="none"><path id="kity_path_617" fill="white" stroke="gray" d="M515.5000438764691,2328.500048033893A6,6,0,1,1,503.50004387646914,2328.500048033893A6,6,0,1,1,515.5000438764691,2328.500048033893"></path><path id="kity_path_618" fill="none" stroke="gray"></path></g><path id="node_outline68" fill="none" stroke="none" d="M520.5000445917249,2317.500048033893h95a5,5,0,0,1,5,5v12a5,5,0,0,1,-5,5h-95a5,5,0,0,1,-5,-5v-12a5,5,0,0,1,5,-5z" stroke-width="3"></path><g id="node_text68" fill="black"><text id="kity_text_614" text-rendering="inherit" font-size="12" dy=".8em" y="2320.7000480351703" x="525.5000445917249">加载资源的优化</text></g></g><g id="minder_node69"><g id="node_expander68" style="cursor: pointer;" display="none"><path id="kity_path_625" fill="white" stroke="gray" d="M515.5000438764691,2380.5000503584743A6,6,0,1,1,503.50004387646914,2380.5000503584743A6,6,0,1,1,515.5000438764691,2380.5000503584743"></path><path id="kity_path_626" fill="none" stroke="gray"></path></g><path id="node_outline69" fill="none" stroke="none" d="M520.5000445917249,2369.5000503584743h59a5,5,0,0,1,5,5v12a5,5,0,0,1,-5,5h-59a5,5,0,0,1,-5,-5v-12a5,5,0,0,1,5,-5z" stroke-width="3"></path><g id="node_text69" fill="black"><text id="kity_text_622" text-rendering="inherit" font-size="12" dy=".8em" y="2372.7000503597515" x="525.5000445917249">渲染优化</text></g></g><g id="minder_node64"><g id="node_expander63" style="cursor: pointer;"><path id="kity_path_585" fill="white" stroke="gray" d="M406.5000390037894,2354.5000491961837A6,6,0,1,1,394.5000390037894,2354.5000491961837A6,6,0,1,1,406.5000390037894,2354.5000491961837"></path><path id="kity_path_586" fill="none" stroke="gray" d="M396.0000390037894,2354.5000491961837L405.0000390037894,2354.5000491961837"></path></g><path id="node_outline64" fill="none" stroke="none" d="M411.50003971904516,2343.5000491961837h59a5,5,0,0,1,5,5v12a5,5,0,0,1,-5,5h-59a5,5,0,0,1,-5,-5v-12a5,5,0,0,1,5,-5z" stroke-width="3"></path><g id="node_text64" fill="black"><text id="kity_text_582" text-rendering="inherit" font-size="12" dy=".8em" y="2346.700049197461" x="416.50003971904516">性能优化</text></g></g><g id="minder_node70"><g id="node_expander69" style="cursor: pointer;" display="none"><path id="kity_path_633" fill="white" stroke="gray" d="M491.50004280358553,2432.5000526830554A6,6,0,1,1,479.50004280358553,2432.5000526830554A6,6,0,1,1,491.50004280358553,2432.5000526830554"></path><path id="kity_path_634" fill="none" stroke="gray"></path></g><path id="node_outline70" fill="none" stroke="none" d="M496.50004351884127,2421.5000526830554h32a5,5,0,0,1,5,5v12a5,5,0,0,1,-5,5h-32a5,5,0,0,1,-5,-5v-12a5,5,0,0,1,5,-5z" stroke-width="3"></path><g id="node_text70" fill="black"><text id="kity_text_630" text-rendering="inherit" font-size="12" dy=".8em" y="2424.7000526843326" x="501.50004351884127">XSS</text></g></g><g id="minder_node71"><g id="node_expander70" style="cursor: pointer;" display="none"><path id="kity_path_641" fill="white" stroke="gray" d="M491.50004280358553,2484.5000550076365A6,6,0,1,1,479.50004280358553,2484.5000550076365A6,6,0,1,1,491.50004280358553,2484.5000550076365"></path><path id="kity_path_642" fill="none" stroke="gray"></path></g><path id="node_outline71" fill="none" stroke="none" d="M496.50004351884127,2473.5000550076365h39a5,5,0,0,1,5,5v12a5,5,0,0,1,-5,5h-39a5,5,0,0,1,-5,-5v-12a5,5,0,0,1,5,-5z" stroke-width="3"></path><g id="node_text71" fill="black"><text id="kity_text_638" text-rendering="inherit" font-size="12" dy=".8em" y="2476.7000550089138" x="501.50004351884127">CSRF</text></g></g><g id="minder_node65"><g id="node_expander64" style="cursor: pointer;"><path id="kity_path_593" fill="white" stroke="gray" d="M406.5000390037894,2458.500053845346A6,6,0,1,1,394.5000390037894,2458.500053845346A6,6,0,1,1,406.5000390037894,2458.500053845346"></path><path id="kity_path_594" fill="none" stroke="gray" d="M396.0000390037894,2458.500053845346L405.0000390037894,2458.500053845346"></path></g><path id="node_outline65" fill="none" stroke="none" d="M411.50003971904516,2447.500053845346h35a5,5,0,0,1,5,5v12a5,5,0,0,1,-5,5h-35a5,5,0,0,1,-5,-5v-12a5,5,0,0,1,5,-5z" stroke-width="3"></path><g id="node_text65" fill="black"><text id="kity_text_590" text-rendering="inherit" font-size="12" dy=".8em" y="2450.700053846623" x="416.50003971904516">安全</text></g></g><g id="minder_node9"><g id="node_expander8" style="cursor: pointer;" display="none"><path id="kity_path_92" fill="white" stroke="gray" d="M406.5000390037894,2009.5000337734818A6,6,0,1,1,394.5000390037894,2009.5000337734818A6,6,0,1,1,406.5000390037894,2009.5000337734818"></path><path id="kity_path_93" fill="none" stroke="gray"></path></g><path id="node_outline9" fill="none" stroke="none" d="M411.50003971904516,1998.5000337734818h25a5,5,0,0,1,5,5v12a5,5,0,0,1,-5,5h-25a5,5,0,0,1,-5,-5v-12a5,5,0,0,1,5,-5z" stroke-width="3"></path><g id="node_text9" fill="black"><text id="kity_text_89" text-rendering="inherit" font-size="12" dy=".8em" y="2001.700033774759" x="416.50003971904516">git</text></g></g><g id="minder_node60"><g id="node_expander59" style="cursor: pointer;" display="none"><path id="kity_path_553" fill="white" stroke="gray" d="M406.5000390037894,2061.500036098063A6,6,0,1,1,394.5000390037894,2061.500036098063A6,6,0,1,1,406.5000390037894,2061.500036098063"></path><path id="kity_path_554" fill="none" stroke="gray"></path></g><path id="node_outline60" fill="none" stroke="none" d="M411.50003971904516,2050.500036098063h35a5,5,0,0,1,5,5v12a5,5,0,0,1,-5,5h-35a5,5,0,0,1,-5,-5v-12a5,5,0,0,1,5,-5z" stroke-width="3"></path><g id="node_text60" fill="black"><text id="kity_text_550" text-rendering="inherit" font-size="12" dy=".8em" y="2053.70003609934" x="416.50003971904516">调试</text></g></g><g id="minder_node61"><g id="node_expander60" style="cursor: pointer;" display="none"><path id="kity_path_561" fill="white" stroke="gray" d="M406.5000390037894,2113.500038422644A6,6,0,1,1,394.5000390037894,2113.500038422644A6,6,0,1,1,406.5000390037894,2113.500038422644"></path><path id="kity_path_562" fill="none" stroke="gray"></path></g><path id="node_outline61" fill="none" stroke="none" d="M411.50003971904516,2102.500038422644h109a5,5,0,0,1,5,5v12a5,5,0,0,1,-5,5h-109a5,5,0,0,1,-5,-5v-12a5,5,0,0,1,5,-5z" stroke-width="3"></path><g id="node_text61" fill="black"><text id="kity_text_558" text-rendering="inherit" font-size="12" dy=".8em" y="2105.7000384239213" x="416.50003971904516">webpack 和Babel</text></g></g><g id="minder_node62"><g id="node_expander61" style="cursor: pointer;" display="none"><path id="kity_path_569" fill="white" stroke="gray" d="M406.5000390037894,2165.5000407472253A6,6,0,1,1,394.5000390037894,2165.5000407472253A6,6,0,1,1,406.5000390037894,2165.5000407472253"></path><path id="kity_path_570" fill="none" stroke="gray"></path></g><path id="node_outline62" fill="none" stroke="none" d="M411.50003971904516,2154.5000407472253h65a5,5,0,0,1,5,5v12a5,5,0,0,1,-5,5h-65a5,5,0,0,1,-5,-5v-12a5,5,0,0,1,5,-5z" stroke-width="3"></path><g id="node_text62" fill="black"><text id="kity_text_566" text-rendering="inherit" font-size="12" dy=".8em" y="2157.7000407485025" x="416.50003971904516">Linux命令</text></g></g><g id="minder_node34"><g id="node_expander33" style="cursor: pointer;" display="none"><path id="kity_path_345" fill="white" stroke="gray" d="M463.500041551888,1005.4999888911843A6,6,0,1,1,451.500041551888,1005.4999888911843A6,6,0,1,1,463.500041551888,1005.4999888911843"></path><path id="kity_path_346" fill="none" stroke="gray"></path></g><path id="node_outline34" fill="none" stroke="none" d="M468.5000422671437,994.4999888911843h59a5,5,0,0,1,5,5v12a5,5,0,0,1,-5,5h-59a5,5,0,0,1,-5,-5v-12a5,5,0,0,1,5,-5z" stroke-width="3"></path><g id="node_text34" fill="black"><text id="kity_text_342" text-rendering="inherit" font-size="12" dy=".8em" y="997.6999888924615" x="473.5000422671437">树形结构</text></g></g><g id="minder_node35"><g id="node_expander34" style="cursor: pointer;" display="none"><path id="kity_path_353" fill="white" stroke="gray" d="M463.500041551888,1057.4999912157655A6,6,0,1,1,451.500041551888,1057.4999912157655A6,6,0,1,1,463.500041551888,1057.4999912157655"></path><path id="kity_path_354" fill="none" stroke="gray"></path></g><path id="node_outline35" fill="none" stroke="none" d="M468.5000422671437,1046.4999912157655h58a5,5,0,0,1,5,5v12a5,5,0,0,1,-5,5h-58a5,5,0,0,1,-5,-5v-12a5,5,0,0,1,5,-5z" stroke-width="3"></path><g id="node_text35" fill="black"><text id="kity_text_350" text-rendering="inherit" font-size="12" dy=".8em" y="1049.6999912170427" x="473.5000422671437">节点操作</text></g></g><g id="minder_node38"><g id="node_expander37" style="cursor: pointer;" display="none"><path id="kity_path_377" fill="white" stroke="gray" d="M463.500041551888,1109.4999935403466A6,6,0,1,1,451.500041551888,1109.4999935403466A6,6,0,1,1,463.500041551888,1109.4999935403466"></path><path id="kity_path_378" fill="none" stroke="gray"></path></g><path id="node_outline38" fill="none" stroke="none" d="M468.5000422671437,1098.4999935403466h35a5,5,0,0,1,5,5v12a5,5,0,0,1,-5,5h-35a5,5,0,0,1,-5,-5v-12a5,5,0,0,1,5,-5z" stroke-width="3"></path><g id="node_text38" fill="black"><text id="kity_text_374" text-rendering="inherit" font-size="12" dy=".8em" y="1101.6999935416238" x="473.5000422671437">属性</text></g></g><g id="minder_node39"><g id="node_expander38" style="cursor: pointer;" display="none"><path id="kity_path_385" fill="white" stroke="gray" d="M463.500041551888,1161.4999958649278A6,6,0,1,1,451.500041551888,1161.4999958649278A6,6,0,1,1,463.500041551888,1161.4999958649278"></path><path id="kity_path_386" fill="none" stroke="gray"></path></g><path id="node_outline39" fill="none" stroke="none" d="M468.5000422671437,1150.4999958649278h83a5,5,0,0,1,5,5v12a5,5,0,0,1,-5,5h-83a5,5,0,0,1,-5,-5v-12a5,5,0,0,1,5,-5z" stroke-width="3"></path><g id="node_text39" fill="black"><text id="kity_text_382" text-rendering="inherit" font-size="12" dy=".8em" y="1153.699995866205" x="473.5000422671437">树结构的操作</text></g></g><g id="minder_node40"><g id="node_expander39" style="cursor: pointer;" display="none"><path id="kity_path_393" fill="white" stroke="gray" d="M463.500041551888,1213.499998189509A6,6,0,1,1,451.500041551888,1213.499998189509A6,6,0,1,1,463.500041551888,1213.499998189509"></path><path id="kity_path_394" fill="none" stroke="gray"></path></g><path id="node_outline40" fill="none" stroke="none" d="M468.5000422671437,1202.499998189509h35a5,5,0,0,1,5,5v12a5,5,0,0,1,-5,5h-35a5,5,0,0,1,-5,-5v-12a5,5,0,0,1,5,-5z" stroke-width="3"></path><g id="node_text40" fill="black"><text id="kity_text_390" text-rendering="inherit" font-size="12" dy=".8em" y="1205.6999981907861" x="473.5000422671437">性能</text></g></g><g id="minder_node3"><g id="node_expander2" style="cursor: pointer;"><path id="kity_path_44" fill="white" stroke="gray" d="M372.500037483871,1109.4999935403466A6,6,0,1,1,360.500037483871,1109.4999935403466A6,6,0,1,1,372.500037483871,1109.4999935403466"></path><path id="kity_path_45" fill="none" stroke="gray" d="M362.000037483871,1109.4999935403466L371.000037483871,1109.4999935403466"></path></g><path id="node_outline3" fill="none" stroke="none" d="M377.5000381991267,1098.4999935403466h41a5,5,0,0,1,5,5v12a5,5,0,0,1,-5,5h-41a5,5,0,0,1,-5,-5v-12a5,5,0,0,1,5,-5z" stroke-width="3"></path><g id="node_text3" fill="black"><text id="kity_text_41" text-rendering="inherit" font-size="12" dy=".8em" y="1101.6999935416238" x="382.5000381991267">DOM</text></g></g><g id="minder_node42"><g id="node_expander41" style="cursor: pointer;" display="none"><path id="kity_path_409" fill="white" stroke="gray" d="M461.500041462481,1265.50000051409A6,6,0,1,1,449.500041462481,1265.50000051409A6,6,0,1,1,461.500041462481,1265.50000051409"></path><path id="kity_path_410" fill="none" stroke="gray"></path></g><path id="node_outline42" fill="none" stroke="none" d="M466.50004217773676,1254.50000051409h65a5,5,0,0,1,5,5v12a5,5,0,0,1,-5,5h-65a5,5,0,0,1,-5,-5v-12a5,5,0,0,1,5,-5z" stroke-width="3"></path><g id="node_text42" fill="black"><text id="kity_text_406" text-rendering="inherit" font-size="12" dy=".8em" y="1257.7000005153673" x="471.50004217773676">navigator</text></g></g><g id="minder_node43"><g id="node_expander42" style="cursor: pointer;" display="none"><path id="kity_path_417" fill="white" stroke="gray" d="M461.500041462481,1317.5000028386712A6,6,0,1,1,449.500041462481,1317.5000028386712A6,6,0,1,1,461.500041462481,1317.5000028386712"></path><path id="kity_path_418" fill="none" stroke="gray"></path></g><path id="node_outline43" fill="none" stroke="none" d="M466.50004217773676,1306.5000028386712h47a5,5,0,0,1,5,5v12a5,5,0,0,1,-5,5h-47a5,5,0,0,1,-5,-5v-12a5,5,0,0,1,5,-5z" stroke-width="3"></path><g id="node_text43" fill="black"><text id="kity_text_414" text-rendering="inherit" font-size="12" dy=".8em" y="1309.7000028399484" x="471.50004217773676">screen</text></g></g><g id="minder_node44"><g id="node_expander43" style="cursor: pointer;" display="none"><path id="kity_path_425" fill="white" stroke="gray" d="M461.500041462481,1369.5000051632524A6,6,0,1,1,449.500041462481,1369.5000051632524A6,6,0,1,1,461.500041462481,1369.5000051632524"></path><path id="kity_path_426" fill="none" stroke="gray"></path></g><path id="node_outline44" fill="none" stroke="none" d="M466.50004217773676,1358.5000051632524h56a5,5,0,0,1,5,5v12a5,5,0,0,1,-5,5h-56a5,5,0,0,1,-5,-5v-12a5,5,0,0,1,5,-5z" stroke-width="3"></path><g id="node_text44" fill="black"><text id="kity_text_422" text-rendering="inherit" font-size="12" dy=".8em" y="1361.7000051645296" x="471.50004217773676">location</text></g></g><g id="minder_node45"><g id="node_expander44" style="cursor: pointer;" display="none"><path id="kity_path_433" fill="white" stroke="gray" d="M461.500041462481,1421.5000074878335A6,6,0,1,1,449.500041462481,1421.5000074878335A6,6,0,1,1,461.500041462481,1421.5000074878335"></path><path id="kity_path_434" fill="none" stroke="gray"></path></g><path id="node_outline45" fill="none" stroke="none" d="M466.50004217773676,1410.5000074878335h50a5,5,0,0,1,5,5v12a5,5,0,0,1,-5,5h-50a5,5,0,0,1,-5,-5v-12a5,5,0,0,1,5,-5z" stroke-width="3"></path><g id="node_text45" fill="black"><text id="kity_text_430" text-rendering="inherit" font-size="12" dy=".8em" y="1413.7000074891107" x="471.50004217773676">history</text></g></g><g id="minder_node41"><g id="node_expander40" style="cursor: pointer;"><path id="kity_path_401" fill="white" stroke="gray" d="M372.500037483871,1343.5000040009618A6,6,0,1,1,360.500037483871,1343.5000040009618A6,6,0,1,1,372.500037483871,1343.5000040009618"></path><path id="kity_path_402" fill="none" stroke="gray" d="M362.000037483871,1343.5000040009618L371.000037483871,1343.5000040009618"></path></g><path id="node_outline41" fill="none" stroke="none" d="M377.5000381991267,1332.5000040009618h39a5,5,0,0,1,5,5v12a5,5,0,0,1,-5,5h-39a5,5,0,0,1,-5,-5v-12a5,5,0,0,1,5,-5z" stroke-width="3"></path><g id="node_text41" fill="black"><text id="kity_text_398" text-rendering="inherit" font-size="12" dy=".8em" y="1335.700004002239" x="382.5000381991267">BOM</text></g></g><g id="minder_node47"><g id="node_expander46" style="cursor: pointer;" display="none"><path id="kity_path_449" fill="white" stroke="gray" d="M457.5000412836671,1473.5000098124146A6,6,0,1,1,445.5000412836671,1473.5000098124146A6,6,0,1,1,457.5000412836671,1473.5000098124146"></path><path id="kity_path_450" fill="none" stroke="gray"></path></g><path id="node_outline47" fill="none" stroke="none" d="M462.5000419989228,1462.5000098124146h34a5,5,0,0,1,5,5v12a5,5,0,0,1,-5,5h-34a5,5,0,0,1,-5,-5v-12a5,5,0,0,1,5,-5z" stroke-width="3"></path><g id="node_text47" fill="black"><text id="kity_text_446" text-rendering="inherit" font-size="12" dy=".8em" y="1465.7000098136918" x="467.5000419989228">绑定</text></g></g><g id="minder_node48"><g id="node_expander47" style="cursor: pointer;" display="none"><path id="kity_path_457" fill="white" stroke="gray" d="M457.5000412836671,1525.5000121369958A6,6,0,1,1,445.5000412836671,1525.5000121369958A6,6,0,1,1,457.5000412836671,1525.5000121369958"></path><path id="kity_path_458" fill="none" stroke="gray"></path></g><path id="node_outline48" fill="none" stroke="none" d="M462.5000419989228,1514.5000121369958h35a5,5,0,0,1,5,5v12a5,5,0,0,1,-5,5h-35a5,5,0,0,1,-5,-5v-12a5,5,0,0,1,5,-5z" stroke-width="3"></path><g id="node_text48" fill="black"><text id="kity_text_454" text-rendering="inherit" font-size="12" dy=".8em" y="1517.700012138273" x="467.5000419989228">冒泡</text></g></g><g id="minder_node49"><g id="node_expander48" style="cursor: pointer;" display="none"><path id="kity_path_465" fill="white" stroke="gray" d="M457.5000412836671,1577.500014461577A6,6,0,1,1,445.5000412836671,1577.500014461577A6,6,0,1,1,457.5000412836671,1577.500014461577"></path><path id="kity_path_466" fill="none" stroke="gray"></path></g><path id="node_outline49" fill="none" stroke="none" d="M462.5000419989228,1566.500014461577h35a5,5,0,0,1,5,5v12a5,5,0,0,1,-5,5h-35a5,5,0,0,1,-5,-5v-12a5,5,0,0,1,5,-5z" stroke-width="3"></path><g id="node_text49" fill="black"><text id="kity_text_462" text-rendering="inherit" font-size="12" dy=".8em" y="1569.7000144628541" x="467.5000419989228">代理</text></g></g><g id="minder_node46"><g id="node_expander45" style="cursor: pointer;"><path id="kity_path_441" fill="white" stroke="gray" d="M372.500037483871,1525.5000121369958A6,6,0,1,1,360.500037483871,1525.5000121369958A6,6,0,1,1,372.500037483871,1525.5000121369958"></path><path id="kity_path_442" fill="none" stroke="gray" d="M362.000037483871,1525.5000121369958L371.000037483871,1525.5000121369958"></path></g><path id="node_outline46" fill="none" stroke="none" d="M377.5000381991267,1514.5000121369958h35a5,5,0,0,1,5,5v12a5,5,0,0,1,-5,5h-35a5,5,0,0,1,-5,-5v-12a5,5,0,0,1,5,-5z" stroke-width="3"></path><g id="node_text46" fill="black"><text id="kity_text_438" text-rendering="inherit" font-size="12" dy=".8em" y="1517.700012138273" x="382.5000381991267">事件</text></g></g><g id="minder_node51"><g id="node_expander50" style="cursor: pointer;" display="none"><path id="kity_path_481" fill="white" stroke="gray" d="M458.50004132837057,1629.500016786158A6,6,0,1,1,446.50004132837057,1629.500016786158A6,6,0,1,1,458.50004132837057,1629.500016786158"></path><path id="kity_path_482" fill="none" stroke="gray"></path></g><path id="node_outline51" fill="none" stroke="none" d="M463.5000420436263,1618.500016786158h109a5,5,0,0,1,5,5v12a5,5,0,0,1,-5,5h-109a5,5,0,0,1,-5,-5v-12a5,5,0,0,1,5,-5z" stroke-width="3"></path><g id="node_text51" fill="black"><text id="kity_text_478" text-rendering="inherit" font-size="12" dy=".8em" y="1621.7000167874353" x="468.5000420436263">XMLHttpRequest</text></g></g><g id="minder_node52"><g id="node_expander51" style="cursor: pointer;" display="none"><path id="kity_path_489" fill="white" stroke="gray" d="M458.50004132837057,1681.5000191107392A6,6,0,1,1,446.50004132837057,1681.5000191107392A6,6,0,1,1,458.50004132837057,1681.5000191107392"></path><path id="kity_path_490" fill="none" stroke="gray"></path></g><path id="node_outline52" fill="none" stroke="none" d="M463.5000420436263,1670.5000191107392h46a5,5,0,0,1,5,5v12a5,5,0,0,1,-5,5h-46a5,5,0,0,1,-5,-5v-12a5,5,0,0,1,5,-5z" stroke-width="3"></path><g id="node_text52" fill="black"><text id="kity_text_486" text-rendering="inherit" font-size="12" dy=".8em" y="1673.7000191120164" x="468.5000420436263">状态码</text></g></g><g id="minder_node53"><g id="node_expander52" style="cursor: pointer;" display="none"><path id="kity_path_497" fill="white" stroke="gray" d="M458.50004132837057,1733.5000214353204A6,6,0,1,1,446.50004132837057,1733.5000214353204A6,6,0,1,1,458.50004132837057,1733.5000214353204"></path><path id="kity_path_498" fill="none" stroke="gray"></path></g><path id="node_outline53" fill="none" stroke="none" d="M463.5000420436263,1722.5000214353204h35a5,5,0,0,1,5,5v12a5,5,0,0,1,-5,5h-35a5,5,0,0,1,-5,-5v-12a5,5,0,0,1,5,-5z" stroke-width="3"></path><g id="node_text53" fill="black"><text id="kity_text_494" text-rendering="inherit" font-size="12" dy=".8em" y="1725.7000214365976" x="468.5000420436263">跨域</text></g></g><g id="minder_node50"><g id="node_expander49" style="cursor: pointer;"><path id="kity_path_473" fill="white" stroke="gray" d="M372.500037483871,1681.5000191107392A6,6,0,1,1,360.500037483871,1681.5000191107392A6,6,0,1,1,372.500037483871,1681.5000191107392"></path><path id="kity_path_474" fill="none" stroke="gray" d="M362.000037483871,1681.5000191107392L371.000037483871,1681.5000191107392"></path></g><path id="node_outline50" fill="none" stroke="none" d="M377.5000381991267,1670.5000191107392h36a5,5,0,0,1,5,5v12a5,5,0,0,1,-5,5h-36a5,5,0,0,1,-5,-5v-12a5,5,0,0,1,5,-5z" stroke-width="3"></path><g id="node_text50" fill="black"><text id="kity_text_470" text-rendering="inherit" font-size="12" dy=".8em" y="1673.7000191120164" x="382.5000381991267">ajax&#xa0;</text></g></g><g id="minder_node57"><g id="node_expander56" style="cursor: pointer;" display="none"><path id="kity_path_529" fill="white" stroke="gray" d="M457.5000412836671,1785.5000237599015A6,6,0,1,1,445.5000412836671,1785.5000237599015A6,6,0,1,1,457.5000412836671,1785.5000237599015"></path><path id="kity_path_530" fill="none" stroke="gray"></path></g><path id="node_outline57" fill="none" stroke="none" d="M462.5000419989228,1774.5000237599015h48a5,5,0,0,1,5,5v12a5,5,0,0,1,-5,5h-48a5,5,0,0,1,-5,-5v-12a5,5,0,0,1,5,-5z" stroke-width="3"></path><g id="node_text57" fill="black"><text id="kity_text_526" text-rendering="inherit" font-size="12" dy=".8em" y="1777.7000237611787" x="467.5000419989228">cookie</text></g></g><g id="minder_node58"><g id="node_expander57" style="cursor: pointer;" display="none"><path id="kity_path_537" fill="white" stroke="gray" d="M457.5000412836671,1837.5000260844827A6,6,0,1,1,445.5000412836671,1837.5000260844827A6,6,0,1,1,457.5000412836671,1837.5000260844827"></path><path id="kity_path_538" fill="none" stroke="gray"></path></g><path id="node_outline58" fill="none" stroke="none" d="M462.5000419989228,1826.5000260844827h81a5,5,0,0,1,5,5v12a5,5,0,0,1,-5,5h-81a5,5,0,0,1,-5,-5v-12a5,5,0,0,1,5,-5z" stroke-width="3"></path><g id="node_text58" fill="black"><text id="kity_text_534" text-rendering="inherit" font-size="12" dy=".8em" y="1829.7000260857599" x="467.5000419989228">localStorage</text></g></g><g id="minder_node59"><g id="node_expander58" style="cursor: pointer;" display="none"><path id="kity_path_545" fill="white" stroke="gray" d="M457.5000412836671,1889.5000284090638A6,6,0,1,1,445.5000412836671,1889.5000284090638A6,6,0,1,1,457.5000412836671,1889.5000284090638"></path><path id="kity_path_546" fill="none" stroke="gray"></path></g><path id="node_outline59" fill="none" stroke="none" d="M462.5000419989228,1878.5000284090638h96a5,5,0,0,1,5,5v12a5,5,0,0,1,-5,5h-96a5,5,0,0,1,-5,-5v-12a5,5,0,0,1,5,-5z" stroke-width="3"></path><g id="node_text59" fill="black"><text id="kity_text_542" text-rendering="inherit" font-size="12" dy=".8em" y="1881.700028410341" x="467.5000419989228">sessionStorage</text></g></g><g id="minder_node56"><g id="node_expander55" style="cursor: pointer;"><path id="kity_path_521" fill="white" stroke="gray" d="M372.500037483871,1837.5000260844827A6,6,0,1,1,360.500037483871,1837.5000260844827A6,6,0,1,1,372.500037483871,1837.5000260844827"></path><path id="kity_path_522" fill="none" stroke="gray" d="M362.000037483871,1837.5000260844827L371.000037483871,1837.5000260844827"></path></g><path id="node_outline56" fill="none" stroke="none" d="M377.5000381991267,1826.5000260844827h35a5,5,0,0,1,5,5v12a5,5,0,0,1,-5,5h-35a5,5,0,0,1,-5,-5v-12a5,5,0,0,1,5,-5z" stroke-width="3"></path><g id="node_text56" fill="black"><text id="kity_text_518" text-rendering="inherit" font-size="12" dy=".8em" y="1829.7000260857599" x="382.5000381991267">存储</text></g></g><g id="minder_node15" opacity="1"><g id="node_expander14" style="cursor: pointer;" display="none"><path id="kity_path_140" fill="white" stroke="gray" d="M553.5000455752015,31.49994534999132A6,6,0,1,1,541.5000455752015,31.49994534999132A6,6,0,1,1,553.5000455752015,31.49994534999132"></path><path id="kity_path_141" fill="none" stroke="gray"></path></g><path id="node_outline15" fill="none" stroke="none" d="M558.5000462904572,20.49994534999132h107a5,5,0,0,1,5,5v12a5,5,0,0,1,-5,5h-107a5,5,0,0,1,-5,-5v-12a5,5,0,0,1,5,-5z" stroke-width="3"></path><g id="node_text15" fill="black"><text id="kity_text_137" text-rendering="inherit" font-size="12" dy=".8em" y="23.699945351268568" x="563.5000462904572">值类型和引用类型</text></g></g><g id="minder_node16" opacity="1"><g id="node_expander15" style="cursor: pointer;" display="none"><path id="kity_path_149" fill="white" stroke="gray" d="M553.5000455752015,83.49994767457247A6,6,0,1,1,541.5000455752015,83.49994767457247A6,6,0,1,1,553.5000455752015,83.49994767457247"></path><path id="kity_path_150" fill="none" stroke="gray"></path></g><path id="node_outline16" fill="none" stroke="none" d="M558.5000462904572,72.49994767457247h59a5,5,0,0,1,5,5v12a5,5,0,0,1,-5,5h-59a5,5,0,0,1,-5,-5v-12a5,5,0,0,1,5,-5z" stroke-width="3"></path><g id="node_text16" fill="black"><text id="kity_text_146" text-rendering="inherit" font-size="12" dy=".8em" y="75.69994767584971" x="563.5000462904572">类型判断</text></g></g><g id="minder_node17" opacity="1"><g id="node_expander16" style="cursor: pointer;" display="none"><path id="kity_path_157" fill="white" stroke="gray" d="M553.5000455752015,135.4999499991536A6,6,0,1,1,541.5000455752015,135.4999499991536A6,6,0,1,1,553.5000455752015,135.4999499991536"></path><path id="kity_path_158" fill="none" stroke="gray"></path></g><path id="node_outline17" fill="none" stroke="none" d="M558.5000462904572,124.49994999915361h59a5,5,0,0,1,5,5v12a5,5,0,0,1,-5,5h-59a5,5,0,0,1,-5,-5v-12a5,5,0,0,1,5,-5z" stroke-width="3"></path><g id="node_text17" fill="black"><text id="kity_text_154" text-rendering="inherit" font-size="12" dy=".8em" y="127.69995000043087" x="563.5000462904572">逻辑运算</text></g></g><g id="minder_node12" opacity="1"><g id="node_expander11" style="cursor: pointer;"><path id="kity_path_116" fill="white" stroke="gray" d="M408.5000390931964,83.49994767457247A6,6,0,1,1,396.5000390931964,83.49994767457247A6,6,0,1,1,408.5000390931964,83.49994767457247"></path><path id="kity_path_117" fill="none" stroke="gray" d="M398.0000390931964,83.49994767457247L407.0000390931964,83.49994767457247"></path></g><path id="node_outline12" fill="none" stroke="none" d="M413.50003980845213,72.49994767457247h95a5,5,0,0,1,5,5v12a5,5,0,0,1,-5,5h-95a5,5,0,0,1,-5,-5v-12a5,5,0,0,1,5,-5z" stroke-width="3"></path><g id="node_text12" fill="black"><text id="kity_text_113" text-rendering="inherit" font-size="12" dy=".8em" y="75.69994767584971" x="418.50003980845213">变量类型和计算</text></g></g><g id="minder_node18"><g id="node_expander17" style="cursor: pointer;" display="none"><path id="kity_path_168" fill="white" stroke="gray" d="M541.5000450387597,187.49995232373476A6,6,0,1,1,529.5000450387597,187.49995232373476A6,6,0,1,1,541.5000450387597,187.49995232373476"></path><path id="kity_path_169" fill="none" stroke="gray"></path></g><path id="node_outline18" fill="none" stroke="none" d="M546.5000457540154,176.49995232373476h37a5,5,0,0,1,5,5v12a5,5,0,0,1,-5,5h-37a5,5,0,0,1,-5,-5v-12a5,5,0,0,1,5,-5z" stroke-width="3"></path><g id="node_text18" fill="black"><text id="kity_text_165" text-rendering="inherit" font-size="12" dy=".8em" y="179.69995232501202" x="551.5000457540154">class</text></g></g><g id="minder_node19"><g id="node_expander18" style="cursor: pointer;" display="none"><path id="kity_path_176" fill="white" stroke="gray" d="M541.5000450387597,239.4999546483159A6,6,0,1,1,529.5000450387597,239.4999546483159A6,6,0,1,1,541.5000450387597,239.4999546483159"></path><path id="kity_path_177" fill="none" stroke="gray"></path></g><path id="node_outline19" fill="none" stroke="none" d="M546.5000457540154,228.4999546483159h35a5,5,0,0,1,5,5v12a5,5,0,0,1,-5,5h-35a5,5,0,0,1,-5,-5v-12a5,5,0,0,1,5,-5z" stroke-width="3"></path><g id="node_text19" fill="black"><text id="kity_text_173" text-rendering="inherit" font-size="12" dy=".8em" y="231.69995464959317" x="551.5000457540154">继承</text></g></g><g id="minder_node20"><g id="node_expander19" style="cursor: pointer;" display="none"><path id="kity_path_184" fill="white" stroke="gray" d="M541.5000450387597,291.49995697289705A6,6,0,1,1,529.5000450387597,291.49995697289705A6,6,0,1,1,541.5000450387597,291.49995697289705"></path><path id="kity_path_185" fill="none" stroke="gray"></path></g><path id="node_outline20" fill="none" stroke="none" d="M546.5000457540154,280.49995697289705h35a5,5,0,0,1,5,5v12a5,5,0,0,1,-5,5h-35a5,5,0,0,1,-5,-5v-12a5,5,0,0,1,5,-5z" stroke-width="3"></path><g id="node_text20" fill="black"><text id="kity_text_181" text-rendering="inherit" font-size="12" dy=".8em" y="283.6999569741743" x="551.5000457540154">原型</text></g></g><g id="minder_node21"><g id="node_expander20" style="cursor: pointer;" display="none"><path id="kity_path_192" fill="white" stroke="gray" d="M541.5000450387597,343.4999592974782A6,6,0,1,1,529.5000450387597,343.4999592974782A6,6,0,1,1,541.5000450387597,343.4999592974782"></path><path id="kity_path_193" fill="none" stroke="gray"></path></g><path id="node_outline21" fill="none" stroke="none" d="M546.5000457540154,332.4999592974782h47a5,5,0,0,1,5,5v12a5,5,0,0,1,-5,5h-47a5,5,0,0,1,-5,-5v-12a5,5,0,0,1,5,-5z" stroke-width="3"></path><g id="node_text21" fill="black"><text id="kity_text_189" text-rendering="inherit" font-size="12" dy=".8em" y="335.69995929875546" x="551.5000457540154">原型链</text></g></g><g id="minder_node22"><g id="node_expander21" style="cursor: pointer;" display="none"><path id="kity_path_200" fill="white" stroke="gray" d="M541.5000450387597,395.49996162205935A6,6,0,1,1,529.5000450387597,395.49996162205935A6,6,0,1,1,541.5000450387597,395.49996162205935"></path><path id="kity_path_201" fill="none" stroke="gray"></path></g><path id="node_outline22" fill="none" stroke="none" d="M546.5000457540154,384.49996162205935h70a5,5,0,0,1,5,5v12a5,5,0,0,1,-5,5h-70a5,5,0,0,1,-5,-5v-12a5,5,0,0,1,5,-5z" stroke-width="3"></path><g id="node_text22" fill="black"><text id="kity_text_197" text-rendering="inherit" font-size="12" dy=".8em" y="387.6999616233366" x="551.5000457540154">instanceof</text></g></g><g id="minder_node13" opacity="1"><g id="node_expander12" style="cursor: pointer;"><path id="kity_path_124" fill="white" stroke="gray" d="M408.5000390931964,291.49995697289705A6,6,0,1,1,396.5000390931964,291.49995697289705A6,6,0,1,1,408.5000390931964,291.49995697289705"></path><path id="kity_path_125" fill="none" stroke="gray" d="M398.0000390931964,291.49995697289705L407.0000390931964,291.49995697289705"></path></g><path id="node_outline13" fill="none" stroke="none" d="M413.50003980845213,280.49995697289705h83a5,5,0,0,1,5,5v12a5,5,0,0,1,-5,5h-83a5,5,0,0,1,-5,-5v-12a5,5,0,0,1,5,-5z" stroke-width="3"></path><g id="node_text13" fill="black"><text id="kity_text_121" text-rendering="inherit" font-size="12" dy=".8em" y="283.6999569741743" x="418.50003980845213">原型和原型链</text></g></g><g id="minder_node24"><g id="node_expander23" style="cursor: pointer;" display="none"><path id="kity_path_216" fill="white" stroke="gray" d="M541.5000450387597,447.4999639466405A6,6,0,1,1,529.5000450387597,447.4999639466405A6,6,0,1,1,541.5000450387597,447.4999639466405"></path><path id="kity_path_217" fill="none" stroke="gray"></path></g><path id="node_outline24" fill="none" stroke="none" d="M546.5000457540154,436.4999639466405h47a5,5,0,0,1,5,5v12a5,5,0,0,1,-5,5h-47a5,5,0,0,1,-5,-5v-12a5,5,0,0,1,5,-5z" stroke-width="3"></path><g id="node_text24" fill="black"><text id="kity_text_213" text-rendering="inherit" font-size="12" dy=".8em" y="439.69996394791775" x="551.5000457540154">作用域</text></g></g><g id="minder_node25"><g id="node_expander24" style="cursor: pointer;" display="none"><path id="kity_path_224" fill="white" stroke="gray" d="M541.5000450387597,499.49996627122164A6,6,0,1,1,529.5000450387597,499.49996627122164A6,6,0,1,1,541.5000450387597,499.49996627122164"></path><path id="kity_path_225" fill="none" stroke="gray"></path></g><path id="node_outline25" fill="none" stroke="none" d="M546.5000457540154,488.49996627122164h59a5,5,0,0,1,5,5v12a5,5,0,0,1,-5,5h-59a5,5,0,0,1,-5,-5v-12a5,5,0,0,1,5,-5z" stroke-width="3"></path><g id="node_text25" fill="black"><text id="kity_text_221" text-rendering="inherit" font-size="12" dy=".8em" y="491.6999662724989" x="551.5000457540154">自由变量</text></g></g><g id="minder_node26"><g id="node_expander25" style="cursor: pointer;" display="none"><path id="kity_path_232" fill="white" stroke="gray" d="M541.5000450387597,551.4999685958028A6,6,0,1,1,529.5000450387597,551.4999685958028A6,6,0,1,1,541.5000450387597,551.4999685958028"></path><path id="kity_path_233" fill="none" stroke="gray"></path></g><path id="node_outline26" fill="none" stroke="none" d="M546.5000457540154,540.4999685958028h34a5,5,0,0,1,5,5v12a5,5,0,0,1,-5,5h-34a5,5,0,0,1,-5,-5v-12a5,5,0,0,1,5,-5z" stroke-width="3"></path><g id="node_text26" fill="black"><text id="kity_text_229" text-rendering="inherit" font-size="12" dy=".8em" y="543.69996859708" x="551.5000457540154">闭包</text></g></g><g id="minder_node27"><g id="node_expander26" style="cursor: pointer;" display="none"><path id="kity_path_240" fill="white" stroke="gray" d="M541.5000450387597,603.4999709203839A6,6,0,1,1,529.5000450387597,603.4999709203839A6,6,0,1,1,541.5000450387597,603.4999709203839"></path><path id="kity_path_241" fill="none" stroke="gray"></path></g><path id="node_outline27" fill="none" stroke="none" d="M546.5000457540154,592.4999709203839h31a5,5,0,0,1,5,5v12a5,5,0,0,1,-5,5h-31a5,5,0,0,1,-5,-5v-12a5,5,0,0,1,5,-5z" stroke-width="3"></path><g id="node_text27" fill="black"><text id="kity_text_237" text-rendering="inherit" font-size="12" dy=".8em" y="595.6999709216611" x="551.5000457540154">this</text></g></g><g id="minder_node14" opacity="1"><g id="node_expander13" style="cursor: pointer;"><path id="kity_path_132" fill="white" stroke="gray" d="M408.5000390931964,525.4999674335122A6,6,0,1,1,396.5000390931964,525.4999674335122A6,6,0,1,1,408.5000390931964,525.4999674335122"></path><path id="kity_path_133" fill="none" stroke="gray" d="M398.0000390931964,525.4999674335122L407.0000390931964,525.4999674335122"></path></g><path id="node_outline14" fill="none" stroke="none" d="M413.50003980845213,514.4999674335122h83a5,5,0,0,1,5,5v12a5,5,0,0,1,-5,5h-83a5,5,0,0,1,-5,-5v-12a5,5,0,0,1,5,-5z" stroke-width="3"></path><g id="node_text14" fill="black"><text id="kity_text_129" text-rendering="inherit" font-size="12" dy=".8em" y="517.6999674347894" x="418.50003980845213">作用域和闭包</text></g></g><g id="minder_node28"><g id="node_expander27" style="cursor: pointer;" display="none"><path id="kity_path_248" fill="white" stroke="gray" d="M492.500042848289,655.4999732449651A6,6,0,1,1,480.500042848289,655.4999732449651A6,6,0,1,1,492.500042848289,655.4999732449651"></path><path id="kity_path_249" fill="none" stroke="gray"></path></g><path id="node_outline28" fill="none" stroke="none" d="M497.50004356354475,644.4999732449651h47a5,5,0,0,1,5,5v12a5,5,0,0,1,-5,5h-47a5,5,0,0,1,-5,-5v-12a5,5,0,0,1,5,-5z" stroke-width="3"></path><g id="node_text28" fill="black"><text id="kity_text_245" text-rendering="inherit" font-size="12" dy=".8em" y="647.6999732462423" x="502.50004356354475">单线程</text></g></g><g id="minder_node29"><g id="node_expander28" style="cursor: pointer;" display="none"><path id="kity_path_256" fill="white" stroke="gray" d="M492.500042848289,707.4999755695462A6,6,0,1,1,480.500042848289,707.4999755695462A6,6,0,1,1,492.500042848289,707.4999755695462"></path><path id="kity_path_257" fill="none" stroke="gray"></path></g><path id="node_outline29" fill="none" stroke="none" d="M497.50004356354475,696.4999755695462h56a5,5,0,0,1,5,5v12a5,5,0,0,1,-5,5h-56a5,5,0,0,1,-5,-5v-12a5,5,0,0,1,5,-5z" stroke-width="3"></path><g id="node_text29" fill="black"><text id="kity_text_253" text-rendering="inherit" font-size="12" dy=".8em" y="699.6999755708234" x="502.50004356354475">callback</text></g></g><g id="minder_node30"><g id="node_expander29" style="cursor: pointer;" display="none"><path id="kity_path_264" fill="white" stroke="gray" d="M492.500042848289,759.4999778941274A6,6,0,1,1,480.500042848289,759.4999778941274A6,6,0,1,1,492.500042848289,759.4999778941274"></path><path id="kity_path_265" fill="none" stroke="gray"></path></g><path id="node_outline30" fill="none" stroke="none" d="M497.50004356354475,748.4999778941274h59a5,5,0,0,1,5,5v12a5,5,0,0,1,-5,5h-59a5,5,0,0,1,-5,-5v-12a5,5,0,0,1,5,-5z" stroke-width="3"></path><g id="node_text30" fill="black"><text id="kity_text_261" text-rendering="inherit" font-size="12" dy=".8em" y="751.6999778954046" x="502.50004356354475">应用场景</text></g></g><g id="minder_node31"><g id="node_expander30" style="cursor: pointer;" display="none"><path id="kity_path_272" fill="white" stroke="gray" d="M492.500042848289,811.4999802187085A6,6,0,1,1,480.500042848289,811.4999802187085A6,6,0,1,1,492.500042848289,811.4999802187085"></path><path id="kity_path_273" fill="none" stroke="gray"></path></g><path id="node_outline31" fill="none" stroke="none" d="M497.50004356354475,800.4999802187085h56a5,5,0,0,1,5,5v12a5,5,0,0,1,-5,5h-56a5,5,0,0,1,-5,-5v-12a5,5,0,0,1,5,-5z" stroke-width="3"></path><g id="node_text31" fill="black"><text id="kity_text_269" text-rendering="inherit" font-size="12" dy=".8em" y="803.6999802199857" x="502.50004356354475">Promise</text></g></g><g id="minder_node23" opacity="1"><g id="node_expander22" style="cursor: pointer;"><path id="kity_path_208" fill="white" stroke="gray" d="M408.5000390931964,733.4999767318368A6,6,0,1,1,396.5000390931964,733.4999767318368A6,6,0,1,1,408.5000390931964,733.4999767318368"></path><path id="kity_path_209" fill="none" stroke="gray" d="M398.0000390931964,733.4999767318368L407.0000390931964,733.4999767318368"></path></g><path id="node_outline23" fill="none" stroke="none" d="M413.50003980845213,722.4999767318368h34a5,5,0,0,1,5,5v12a5,5,0,0,1,-5,5h-34a5,5,0,0,1,-5,-5v-12a5,5,0,0,1,5,-5z" stroke-width="3"></path><g id="node_text23" fill="black"><text id="kity_text_205" text-rendering="inherit" font-size="12" dy=".8em" y="725.699976733114" x="418.50003980845213">异步</text></g></g><g id="minder_node33" opacity="1"><g id="node_expander32" style="cursor: pointer;" display="none"><path id="kity_path_288" fill="white" stroke="gray" d="M505.5000434294343,863.4999825432897A6,6,0,1,1,493.5000434294343,863.4999825432897A6,6,0,1,1,505.5000434294343,863.4999825432897"></path><path id="kity_path_289" fill="none" stroke="gray"></path></g><path id="node_outline33" fill="none" stroke="none" d="M510.50004414469004,852.4999825432897h79a5,5,0,0,1,5,5v12a5,5,0,0,1,-5,5h-79a5,5,0,0,1,-5,-5v-12a5,5,0,0,1,5,-5z" stroke-width="3"></path><g id="node_text33" fill="black"><text id="kity_text_285" text-rendering="inherit" font-size="12" dy=".8em" y="855.6999825445669" x="515.50004414469">ES6 Module</text></g></g><g id="minder_node32" opacity="1"><g id="node_expander31" style="cursor: pointer;"><path id="kity_path_280" fill="white" stroke="gray" d="M408.5000390931964,863.4999825432897A6,6,0,1,1,396.5000390931964,863.4999825432897A6,6,0,1,1,408.5000390931964,863.4999825432897"></path><path id="kity_path_281" fill="none" stroke="gray" d="M398.0000390931964,863.4999825432897L407.0000390931964,863.4999825432897"></path></g><path id="node_outline32" fill="none" stroke="none" d="M413.50003980845213,852.4999825432897h47a5,5,0,0,1,5,5v12a5,5,0,0,1,-5,5h-47a5,5,0,0,1,-5,-5v-12a5,5,0,0,1,5,-5z" stroke-width="3"></path><g id="node_text32" fill="black"><text id="kity_text_277" text-rendering="inherit" font-size="12" dy=".8em" y="855.6999825445669" x="418.50003980845213">模块化</text></g></g></g></g></svg>